<svg xmlns="http://www.w3.org/2000/svg" width="909.091" height="909.091" viewBox="0 0 909.091 909.091">
  <g id="Group_1252" data-name="Group 1252" transform="translate(-6340.455 8007.546)">
    <circle id="Ellipse_154" data-name="Ellipse 154" cx="454.546" cy="454.546" r="454.546" transform="translate(6340.455 -8007.546)" fill="#fff" opacity="0.37"/>
    <g id="Objects" transform="translate(6234 -8083)">
      <g id="Group_1250" data-name="Group 1250">
        <g id="Group_1247" data-name="Group 1247">
          <g id="Group_1246" data-name="Group 1246">
            <path id="Path_2502" data-name="Path 2502" d="M760.389,507.271c0-109.295-88.6-197.9-197.9-197.9S364.221,398.671,364.6,507.968A197.236,197.236,0,0,0,422.371,647a224.6,224.6,0,0,1,58.145,99.835l15.957,59.016H626.2l15.113-55.9A225.118,225.118,0,0,1,701.234,648.38,197.284,197.284,0,0,0,760.389,507.271Z" fill="#acacac"/>
            <path id="Path_2503" data-name="Path 2503" d="M592.458,874.971H529.209c-17.92,0-33.251-13.234-34.273-30.023l-5.338-64.81,143.246-.918-6.114,65.728C625.709,861.737,610.377,874.971,592.458,874.971Z" fill="#59595b"/>
          </g>
          <path id="Path_2504" data-name="Path 2504" d="M619.965,807.483c-40.014,1.711-80.172-.34-120.182,1.429-3.553.157-3.287,5.343.2,5.459,40.043,1.33,80.192-1.152,120.239.122C624.714,814.635,624.515,807.288,619.965,807.483Z" fill="#808183"/>
          <path id="Path_2505" data-name="Path 2505" d="M619.965,824.864c-40.014,1.711-80.172-.34-120.182,1.429-3.553.157-3.287,5.343.2,5.459,40.043,1.33,80.192-1.152,120.239.122C624.714,832.017,624.515,824.669,619.965,824.864Z" fill="#808183"/>
        </g>
        <g id="Group_1248" data-name="Group 1248">
          <path id="Path_2506" data-name="Path 2506" d="M578.628,208.745c0,12.753-6.781,58.6-15.145,58.6s-15.145-45.846-15.145-58.6,6.781-23.091,15.145-23.091S578.628,195.992,578.628,208.745Z" fill="#e4e4e4"/>
          <path id="Path_2507" data-name="Path 2507" d="M767.342,279.159c-9.673,8.311-40.027,43.332-34.576,49.677s44.643-18.391,54.316-26.7,13.1-20.192,7.644-26.536S777.014,270.848,767.342,279.159Z" fill="#e4e4e4"/>
          <path id="Path_2508" data-name="Path 2508" d="M840.892,483.752c-12.651,1.607-58.986.657-60.04-7.641s43.572-20.8,56.223-22.408,23.762,3.817,24.815,12.115S853.543,482.145,840.892,483.752Z" fill="#e4e4e4"/>
          <path id="Path_2509" data-name="Path 2509" d="M376.945,263.932c10.04,7.862,41.955,41.468,36.8,48.053s-45.433-16.343-55.473-24.206-14-19.575-8.842-26.16S366.9,256.069,376.945,263.932Z" fill="#e4e4e4"/>
          <path id="Path_2510" data-name="Path 2510" d="M281.108,450.976c12.651,1.607,58.987.657,60.04-7.641s-43.572-20.8-56.223-22.408-23.761,3.818-24.815,12.115S268.457,449.369,281.108,450.976Z" fill="#e4e4e4"/>
        </g>
        <g id="Group_1249" data-name="Group 1249">
          <path id="Path_2511" data-name="Path 2511" d="M647.905,608.031A50.931,50.931,0,0,1,633,590.438c7.177-8.861,10.339-20.776,11.654-31.852a199.472,199.472,0,0,0,1.139-20.372c.1-6.566-.759-12.144-6.32-16.231-4.958-3.645-11.578-.356-15.384,3.181-4.391,4.08-6.515,10.763-8.21,16.327-3.424,11.237-3.361,23.283-1.212,34.738a68.942,68.942,0,0,0,3.309,11.716,30.449,30.449,0,0,1-9.508,5.063c-10.812,3.46-19.019-2.769-24.024-11.987-.822-1.515-1.6-3.12-2.337-4.79.85-2.278,1.661-4.556,2.419-6.809a142.131,142.131,0,0,0,6.63-33.924c.762-9.53,1.034-20.919-8.135-26.564-2.948-1.816-6.259-.444-8.112,2.127-13.4,18.586-12.645,43.236-5.368,64.324a139.98,139.98,0,0,1-8.147,16.294c-3.358,5.785-9.77,14.709-17.551,13.577-7.241-1.055-13.032-10.145-16.633-15.768a64.237,64.237,0,0,1-6.343-13.1q1.38-3.63,2.562-7.347a134.6,134.6,0,0,0,5.625-30.053c.675-8.489.947-20.412-8.337-24.478-2.7-1.183-6.69-1.059-8.122,2.129a85.014,85.014,0,0,0-4.572,57.263c.174.651.379,1.3.572,1.945a125.807,125.807,0,0,1-24.587,38.886c-4.666,5.066,2.721,12.539,7.579,7.579a132.1,132.1,0,0,0,23-31.876,83.491,83.491,0,0,0,6.007,9.652c6.064,8.4,13.662,16.258,24.572,16.847,10.189.551,18.465-8.016,23.986-15.463a80.777,80.777,0,0,0,7.026-11.523c4.99,7.951,12.189,14.257,21.993,15.631,9.022,1.264,17.761-1.539,25.154-6.489a75.107,75.107,0,0,0,16.452,19.466C647.228,624.795,655.736,613.759,647.905,608.031Zm-68.162-82.536c.419,4.742-.678,10.593-.942,13.467a113.254,113.254,0,0,1-2.612,15.588C574.952,544.444,575.779,534.081,579.743,525.495Zm46.232,29.822a56.369,56.369,0,0,1,3.312-14.41,29.7,29.7,0,0,1,2.881-5.963,12.871,12.871,0,0,1,.934-1.155,9.343,9.343,0,0,1,.228,1.434c.633,12.007-.359,24.965-4.1,36.414a36.083,36.083,0,0,1-1.65,4.135A67.652,67.652,0,0,1,625.975,555.317Z" fill="#fff"/>
          <path id="Path_2512" data-name="Path 2512" d="M659.161,578.923c-21.044,64.225-43.194,128.128-66.99,191.387-2.848,7.573,8.818,12.213,11.651,4.645,23.714-63.354,45.738-127.284,65.49-191.985C671.349,576.3,661.365,572.2,659.161,578.923Z" fill="#fff"/>
          <path id="Path_2513" data-name="Path 2513" d="M467.772,574.864c16.793,65.465,32.48,131.253,46.432,197.384,1.671,7.917,14,5.556,12.321-2.349-14.073-66.166-29.88-131.91-48.018-197.082C476.636,566.095,466.014,568.007,467.772,574.864Z" fill="#fff"/>
        </g>
      </g>
    </g>
  </g>
</svg>
